<svg width="610" height="895" viewBox="0 0 610 895" fill="none" xmlns="http://www.w3.org/2000/svg">
<path d="M328.921 59.179V65.8283L324.934 68.4881L320.948 72.4777L314.303 73.8075L301.013 69.8179H298.355V72.4777L299.684 75.1374L298.355 79.127L296.362 74.4725V69.153L279.085 58.5141L269.782 53.1946L259.15 51.8647L253.834 54.5245L252.505 55.8543L249.847 54.5245L247.189 51.8647H244.531L243.202 55.8543L237.887 57.1842L233.9 58.5141H229.913V62.5037L231.242 65.1634V69.153L227.255 82.4517L224.597 89.101V94.4205V98.4101L220.61 105.059V110.379L216.623 119.688L221.939 130.327L220.61 138.306V147.615L221.939 154.264V162.244L215.294 168.893V183.522L213.965 198.15L219.281 208.789V214.108L213.965 220.758H207.32H202.004L199.346 216.768L192.701 208.789V207.459L195.359 208.789V203.469L191.372 204.799H187.385V199.48L183.399 200.81V202.14L180.741 203.469L179.412 211.449V220.758V228.737L180.741 230.067L184.728 227.407V231.397L188.714 238.046V251.345L191.372 255.334L190.043 260.654V264.643L192.701 268.633L195.359 276.612L196.688 285.921L199.346 287.251L196.688 291.241L199.346 296.56V301.88L202.004 304.539H204.662L207.32 303.209L209.978 297.89L211.307 300.55V304.539V311.189L212.636 312.519L215.294 313.848L217.952 316.508L219.281 324.487L223.268 325.817L228.584 327.147L231.242 325.817V317.838V312.519L229.913 308.529L228.584 305.869L231.242 301.88H236.558L243.202 305.869L248.518 307.199L253.834 308.529V315.178V319.168V323.157L252.505 325.817L247.189 329.807L231.242 343.105V347.095L233.9 348.425V367.043H235.229L236.558 365.713L239.216 364.383L240.545 359.064L245.86 360.394L247.189 361.724L249.847 363.053H251.176L252.505 371.033H257.821L260.479 372.363V377.682L264.466 379.012H271.111L275.098 380.342L280.414 376.352L284.401 372.363L285.73 367.043L296.362 361.724L304.335 360.394L308.322 359.064L312.309 363.053L321.612 367.043L328.257 369.703L333.573 381.672H340.218L345.534 385.661L350.85 390.981L352.179 398.96V405.609L358.823 409.599L364.139 406.939V402.949V394.97L357.494 385.661L350.85 376.352V371.033L352.179 365.713L350.85 364.383L348.192 361.724L349.521 360.394H357.494L360.152 363.053L365.468 365.713L368.126 368.373L370.784 371.033L373.442 373.692V376.352H372.113V380.342L377.429 383.001L386.732 386.991L392.048 388.321L394.706 390.981L396.035 396.3L397.364 400.29L401.351 404.279L402.68 408.269L401.351 410.929V416.248L404.009 420.238H407.995H411.982L419.956 426.887H429.259H435.904L437.233 425.557L439.891 422.897L443.878 421.568L449.194 422.897L447.865 425.557L446.536 428.217H443.878L437.233 430.877V436.196L438.562 441.516L441.22 442.845L443.878 446.835L447.865 449.495H451.852L454.51 442.845V437.526L455.839 428.217V421.568V418.908L458.497 417.578L457.168 413.588L454.51 414.918L453.181 418.908L450.523 417.578L446.536 414.918L443.878 413.588L441.22 412.259L434.575 416.248L431.917 417.578V416.248V413.588V410.929L433.246 406.939L434.575 404.279H438.562V401.62H439.891L440.861 401.939L443.878 402.949L446.536 405.609L453.181 406.939L454.51 408.269H457.168V405.609L454.51 404.279L451.852 405.609L449.194 402.949H446.536L443.878 401.62H439.891V400.29L438.562 398.96L437.233 397.63L435.904 398.96V401.62H433.246L426.601 392.311L421.285 388.321L417.298 383.001V380.342L418.627 375.022L422.614 373.692H429.259H437.233L443.878 371.033L435.904 365.713L431.917 364.383L425.272 363.053H418.627L414.64 361.724V360.394H410.653L407.995 359.064V356.404L406.667 353.744L401.351 355.074L400.022 356.404V357.734H402.68L404.009 359.064L402.68 360.394L401.351 361.724L402.68 365.713V368.373L400.022 371.033H397.364L393.377 372.363H389.39V368.373L386.732 367.043V364.383L388.061 363.053V357.734L385.403 353.744V351.085V348.425L380.087 344.435L378.758 341.776L374.771 340.446L370.784 337.786L368.126 335.126L366.797 333.796H362.81V335.126V336.456H360.152L356.165 333.796L350.85 335.126L346.863 336.456L344.205 339.116L342.876 343.105L341.547 345.765L340.218 347.095H338.889L337.56 345.765V341.776L336.231 340.446L333.573 343.105L332.244 345.765V348.425L334.902 349.755L337.56 352.415L338.889 353.744V356.404L334.902 355.074L333.573 357.734L334.902 359.064L333.573 361.724H328.257L317.625 356.404L313.638 352.415L308.322 348.425L304.335 344.435L303.006 343.105V341.776H304.335V339.116L300.348 329.807L299.019 325.817L297.69 321.828L296.362 317.838V311.189L300.348 309.859H303.006L300.348 307.199L297.69 305.869V303.209L293.704 293.9L292.375 289.911L288.388 285.921L287.059 280.602L284.401 277.942L283.072 272.623L281.743 269.963H280.414V265.973L283.072 264.643L284.401 263.313L288.388 255.334L292.375 250.015L295.033 247.355L296.362 243.365L297.69 240.706H295.033L293.704 238.046L292.375 236.716V232.727V230.067L303.006 220.758L304.335 219.428H306.993L309.651 218.098L313.638 216.768L317.625 215.438L320.283 212.779L325.599 208.789L326.928 207.459L328.257 210.119L326.928 211.449L324.27 215.438L321.612 218.098V220.758L322.941 219.428L324.27 218.098L326.928 215.438L329.586 212.779L330.915 211.449L333.573 208.789L332.244 200.81L333.573 195.49L337.56 188.841L342.876 179.532L348.192 171.553L349.521 166.233V160.914L350.85 158.254L352.179 156.924L350.85 154.264L349.521 150.275H346.863V147.615V143.626V142.296L344.205 136.976H341.547L337.56 135.646H334.902L332.244 125.007L329.586 110.379V103.73V101.07L330.915 91.7607V86.4413L334.902 81.1218L340.218 75.8023L341.547 71.8127L340.218 66.4933L337.56 63.8335L336.231 59.8439L332.244 58.5141L328.921 59.179Z" fill="#DE8484"/>
<path d="M285.73 33.2466H280.414L276.427 34.5764V37.2362L280.414 35.9063L285.73 33.2466Z" fill="#DE8484"/>
<path d="M310.98 37.2364L313.638 35.9065L318.954 30.587V27.9273L317.625 26.5974L312.309 25.2676L310.98 30.587V31.9169L309.651 34.5766L308.322 35.9065L310.98 37.2364Z" fill="#DE8484"/>
<path d="M283.072 1.32987L281.743 3.9896L283.072 5.31947L285.73 6.64933L288.388 7.9792H289.717L291.046 5.31947L289.717 3.9896L288.388 2.65973L285.73 0L283.072 1.32987Z" fill="#DE8484"/>
<path d="M316.296 340.446L321.612 344.435L329.586 351.085V353.744L326.928 352.415L320.283 349.755L317.625 345.765L316.296 340.446Z" fill="#DE8484"/>
<path d="M316.296 287.251L310.98 289.911L308.322 292.57L309.651 296.56L314.967 301.88L316.296 307.199V311.189L314.967 313.848H318.954L320.283 311.189L321.612 307.199L320.283 301.88L317.625 296.56L318.954 295.23L321.612 293.9L322.941 291.241L316.296 287.251Z" fill="#DE8484"/>
<path d="M326.928 300.55L328.257 303.209L333.573 305.869L336.231 307.199V303.209L330.915 299.22L326.928 300.55Z" fill="#DE8484"/>
<path d="M455.839 352.415V360.394L453.181 372.363L449.194 376.352L453.181 381.672L459.826 384.331L461.155 381.672H462.484H465.142H467.8L469.129 377.682L470.458 371.033V368.373L471.787 367.043V364.383L467.8 360.394H465.142V357.734H463.813L462.484 355.074L461.155 352.415H455.839Z" fill="#DE8484"/>
<path d="M310.98 384.332V388.321L308.322 392.311L309.651 400.29L320.283 405.609H324.27V401.62L326.928 397.63L328.257 396.3L326.928 394.97V392.311L325.599 389.651L324.27 388.321L321.612 386.991H317.625L314.967 385.661L313.638 384.332H310.98Z" fill="#DE8484"/>
<path d="M199.346 365.713L200.675 368.373L205.991 373.693H209.978L211.307 372.363V371.033L208.649 368.373L207.32 367.043H203.333L202.004 365.713H199.346Z" fill="#DE8484"/>
<path d="M217.952 386.991L215.294 389.651L217.952 394.97L219.281 393.641L220.61 392.311L223.268 393.641L224.597 398.96L228.584 405.609L233.9 406.939L241.874 416.248L244.532 434.866L249.848 440.186L255.163 449.495H257.821V452.155H253.834V453.485L259.15 460.134L264.466 464.123V468.113H271.111L277.756 466.783L283.072 462.794L281.743 457.474L284.401 456.144L285.73 449.495L289.717 446.835L291.046 441.516L289.717 438.856L288.388 436.196L287.059 429.547L288.388 418.908L289.717 416.248L291.046 414.918V412.259H288.388L285.73 410.929V405.609L280.414 401.62L269.782 393.641H260.479L259.15 392.311L256.492 389.651L253.834 388.321H248.519L244.532 389.651L243.203 390.981H241.874L240.545 389.651L236.558 388.321L233.9 386.991L223.268 388.321L217.952 386.991Z" fill="#DE8484"/>
<path d="M320.283 446.835L321.612 454.814L318.954 458.804L316.296 462.794L317.625 465.453L321.612 468.113V474.762H322.941L324.27 468.113L326.928 462.794V454.814L328.257 452.155V445.505H322.941L320.283 446.835Z" fill="#DE8484"/>
<path d="M336.231 446.835V450.824L338.889 452.154H340.218V449.495L338.889 448.165V446.835H336.231Z" fill="#DE8484"/>
<path d="M348.192 457.474L352.179 460.133L356.165 462.793L358.823 465.453L362.81 464.123L364.139 460.133V456.144L361.481 453.484L357.494 452.154H354.837H352.179V453.484H349.521L346.863 456.144L348.192 457.474Z" fill="#DE8484"/>
<path d="M382.745 409.599L378.758 412.258V417.578L384.074 418.908H386.732L390.719 424.227L394.706 428.217L398.693 430.877L400.022 428.217L398.693 426.887L394.706 422.897L392.048 421.567L390.719 418.908L388.061 414.918L386.732 412.258L382.745 409.599Z" fill="#DE8484"/>
<path d="M398.693 448.165L401.351 454.814V458.804L400.022 461.463L397.364 466.783V470.773H401.351V473.432L396.035 478.752L393.377 486.731V490.72L397.364 486.731L402.68 481.411V478.752L406.667 474.762L409.325 470.773L414.641 472.102L417.299 473.432L421.286 477.422L427.93 484.071L429.259 489.391L431.917 488.061L434.575 489.391L439.891 494.71L447.865 498.7L450.523 501.359V498.7V497.37L449.194 492.05L447.865 489.391V486.731L445.207 481.411L442.549 476.092L438.562 472.102V470.773H434.575L430.588 469.443L423.943 462.793L419.957 460.134L417.299 457.474L407.996 450.825L404.009 449.495H402.68L401.351 446.835L398.693 448.165Z" fill="#DE8484"/>
<path d="M421.285 442.846V445.505L425.272 452.155L429.259 457.474L430.588 458.804L431.917 454.814V452.155L429.259 446.835L426.601 444.176L421.285 442.846Z" fill="#DE8484"/>
<path d="M260.479 468.113H259.15V470.773V472.102L261.808 473.432V470.773L260.479 468.113Z" fill="#DE8484"/>
<path d="M186.057 464.123V470.772L192.702 480.081L198.017 482.741L211.307 484.071L213.965 482.741L212.636 477.422L208.649 472.102L207.32 473.432L205.991 476.092L200.675 473.432L195.359 470.772L190.044 465.453L188.715 464.123H186.057Z" fill="#DE8484"/>
<path d="M205.991 488.061L207.32 490.721L208.649 492.051L209.978 493.38V489.391V488.061H205.991Z" fill="#DE8484"/>
<path d="M186.057 486.731L187.386 490.721V493.38L190.044 497.37H192.702V498.7L191.373 501.359V505.349L194.031 502.689L196.688 500.03V497.37H198.017V493.38L194.031 488.061L190.044 486.731H188.715H186.057Z" fill="#DE8484"/>
<path d="M184.728 515.988V522.638H178.083V519.978H182.07L184.728 515.988Z" fill="#DE8484"/>
<path d="M160.806 523.967L158.148 529.287V545.245L155.49 546.575L152.832 549.235H150.174V551.894L154.161 555.884L158.148 558.544V561.204V562.533H156.819L154.161 561.204L151.503 559.874L148.845 558.544L147.516 554.554L146.187 555.884V561.204L148.845 563.863L152.832 569.183L151.503 574.502L140.872 586.471L139.543 583.811H136.885V586.471L127.582 597.11V601.1H122.266L119.608 602.429V605.089V607.749H118.279V611.738H116.95L115.621 607.749H114.292L111.634 611.738L103.66 626.367L87.7125 639.666L74.4227 656.954H73.0937L69.1068 662.273H66.4489V659.614L61.1329 660.944L51.8301 672.912H46.5142L26.5796 695.52L21.2637 706.159L18.6057 712.808V715.468L22.5926 714.138L29.2375 711.478L33.2245 708.819H37.2114L38.5404 704.829L39.8693 698.18H47.8432L51.8301 696.85L55.817 692.86L62.4619 686.211L66.4489 683.551L77.0807 668.923L81.0676 666.263L89.0415 664.933L91.6994 663.603L102.331 652.964V651.634L107.647 643.655L111.634 638.336L114.292 637.006L112.963 631.686V629.027V627.697H114.292V629.027H115.621V626.367V623.707L114.292 618.388L118.279 617.058L134.227 611.738L140.872 610.409L144.858 606.419L146.187 601.1L148.845 597.11L159.477 589.131L167.451 587.801L175.425 579.822L174.096 577.162L171.438 575.832L167.451 570.513V565.193H168.78V561.204L163.464 559.874V558.544L162.135 557.214V549.235L163.464 541.256L164.793 539.926V535.936L166.122 534.606L164.793 531.946V527.957H163.464V525.297L160.806 523.967Z" fill="#DE8484"/>
<path d="M183.399 571.842L179.412 581.151L180.741 582.481H183.399L188.714 579.821L192.701 578.492L191.372 574.502L188.714 573.172H187.385L186.057 571.842H183.399Z" fill="#DE8484"/>
<path d="M22.5925 723.447L23.9215 727.437L26.5795 726.107V722.117L22.5925 723.447Z" fill="#DE8484"/>
<path d="M7.97386 734.086L10.6318 738.076L9.30283 751.374H3.98693L0 744.725L3.98693 736.746L5.3159 734.086H7.97386Z" fill="#DE8484"/>
<path d="M306.994 829.836L312.309 833.826L317.625 840.475H326.928L332.244 837.816L333.573 831.166L340.218 829.836V825.847L332.244 824.517L325.599 820.527L314.967 821.857L310.98 825.847L306.994 829.836Z" fill="#DE8484"/>
<path d="M329.586 809.889L338.889 785.951L342.876 781.961V772.652L356.166 756.694L365.468 755.364L370.784 756.694V775.312L372.113 779.302V785.951L374.771 784.621L377.429 781.961L378.758 780.632V777.972H374.771V776.642H373.442L372.113 775.312L373.442 773.982L374.771 769.993H377.429L381.416 772.652L382.745 773.982L384.074 772.652V769.993H385.403L386.732 762.013L390.719 760.684L392.048 759.354L394.706 764.673L390.719 768.663V769.993L392.048 773.982L394.706 772.652L398.693 769.993H402.68V776.642L407.996 779.302H410.654V776.642L405.338 769.993L411.983 763.343V756.694H410.654V751.374L415.969 750.045H421.285L429.259 754.034L431.917 756.694L434.575 759.354H443.878L447.865 764.673L453.181 771.322L457.168 776.642L461.155 779.302V785.951L455.839 793.93L450.523 797.92L446.536 801.909L443.878 815.208L445.207 817.868L447.865 820.528V827.177V839.146L459.826 855.104L465.142 859.094L478.431 865.743L493.05 872.392L514.314 876.382L515.643 872.392L518.301 867.073L520.959 861.753L524.946 863.083L527.603 867.073L526.274 872.392L523.617 876.382V881.701L527.603 887.021L528.932 891.01L530.261 895L538.235 893.67L547.538 876.382L552.854 869.733L554.183 856.434L552.854 848.455L547.538 841.805L542.222 833.826L532.919 828.507L534.248 815.208L538.235 807.229L544.88 799.25L551.525 797.92L554.183 800.58L556.841 809.889H558.17V796.59L556.841 792.6L554.183 793.93L552.854 795.26L550.196 793.93L552.854 785.951L560.828 783.291H563.486L564.815 792.6V799.25L571.46 803.239V807.229L572.789 812.548L576.776 815.208L578.105 819.198L579.434 823.187H576.776V828.507H579.434V832.496V839.146L582.091 841.805L583.42 844.465H586.078V839.146L587.407 833.826V825.847H588.736V817.868L582.091 812.548V808.559L584.749 807.229H587.407L588.736 809.889L591.394 813.878H592.723L594.052 811.218L592.723 805.899L600.697 803.239L603.355 796.59L607.342 791.27V785.951V781.961L606.013 780.632V777.972L610 773.982L608.671 769.993L607.342 763.343L604.684 760.684V755.364L598.039 752.704L594.052 750.045L595.381 743.395L596.71 740.736L600.697 726.107H598.039L594.052 727.437V722.117L592.723 718.128L591.394 714.138L594.052 711.478L592.723 708.819L591.394 707.489L586.078 706.159L580.763 704.829L578.105 700.84L582.091 696.85L588.736 694.19L591.394 686.211L590.065 678.232L582.091 671.582L583.42 658.284H579.434L576.776 662.273L571.46 659.614L567.473 652.964V648.975L563.486 643.655L558.17 642.325L551.525 638.336L547.538 637.006L546.209 633.016L547.538 629.027L543.551 627.697H542.222L539.564 626.367L536.906 625.037L535.577 626.367L534.248 629.027L535.577 633.016L534.248 638.336L535.577 642.325L536.906 646.315L539.564 651.634L540.893 658.284V662.273L543.551 663.603L542.222 670.253L539.564 676.902L535.577 678.232H530.261L527.603 676.902L524.946 675.572L522.288 672.912H519.63V679.562V684.881L516.972 686.211H514.314H511.656L505.011 678.232L501.024 676.902H498.366L495.708 679.562V688.871V696.85H494.379L491.721 700.84L493.05 704.829L494.379 707.489H493.05L490.392 711.478L485.076 708.819L478.431 704.829L475.773 702.169L471.786 703.499L466.471 710.149L461.155 722.117L459.826 728.767H454.51L449.194 730.097L439.891 732.756L434.575 739.406L429.259 742.065H425.272V739.406L429.259 735.416L435.904 728.767V720.788V714.138L430.588 702.169L426.601 700.84L423.943 699.51H419.956V700.84H417.298L415.969 699.51H409.325L402.68 700.84L401.351 707.489L396.035 708.819H392.048H386.732L384.074 712.808L381.416 716.798V723.447V727.437L377.429 731.426L370.784 732.756L358.823 735.416L345.534 738.076L340.218 740.736L336.231 743.395L333.573 747.385L329.586 751.374L328.257 756.694V760.684V766.003V769.993L325.599 776.642L324.27 780.632V784.621L321.612 787.281L314.967 793.93V799.25L316.296 805.899L321.612 809.889L326.928 811.218L329.586 809.889Z" fill="#DE8484"/>
<path d="M490.392 660.943L486.405 664.933L487.734 668.923L493.05 670.253H497.037L495.708 666.263L493.05 663.603L490.392 660.943Z" fill="#DE8484"/>
<path d="M413.312 662.273L417.298 668.923L421.285 670.252L425.272 668.923V664.933L422.614 660.943L421.285 658.284L418.627 662.273H413.312Z" fill="#DE8484"/>
<path d="M564.815 630.356L566.144 638.336L571.46 635.676V630.356H564.815Z" fill="#DE8484"/>
<path d="M574.118 609.079L572.789 615.728L567.473 618.388L572.789 625.037L578.105 630.356L580.763 626.367V623.707L578.105 622.377L579.434 617.058L578.105 610.408L574.118 609.079Z" fill="#DE8484"/>
<path d="M550.196 585.141V591.79L548.867 594.45L547.538 598.44L550.196 599.77L551.525 603.759V607.749V615.728V617.058L552.854 619.718L548.867 623.707L544.88 622.377L548.867 618.388V617.058L547.538 614.398L546.209 613.068L543.551 610.409L539.564 607.749V601.1L543.551 598.44V594.45V590.461L546.209 587.801L547.538 585.141H550.196Z" fill="#DE8484"/>
<path d="M482.418 605.089L478.431 606.419L479.76 607.749L485.076 605.089H482.418Z" fill="#DE8484"/>
<path d="M455.839 605.089L450.523 614.398L443.878 617.058L437.233 621.048L434.575 625.037L433.246 629.027L437.233 633.016L435.904 637.006L430.588 639.666L431.917 640.996L437.233 639.666L443.878 637.006L450.523 638.336L465.142 637.006L477.102 630.357L479.76 629.027L482.418 627.697V625.037L479.76 622.377L477.102 621.048L479.76 619.718H482.418L481.089 613.068L478.431 610.409L471.787 606.419L463.813 603.759H457.168L455.839 605.089Z" fill="#DE8484"/>
<path d="M466.471 567.853L465.142 574.502H469.129L473.115 573.172L477.102 571.843L475.773 567.853H466.471Z" fill="#DE8484"/>
<path d="M447.865 533.276V537.266L446.536 539.926V543.915L449.194 546.575L447.865 561.204L446.536 565.193V570.513L447.865 571.842L446.536 586.471L445.207 587.801L446.536 589.131L443.878 590.461V591.79L446.536 593.12L445.207 595.78H443.878L441.22 593.12L437.233 594.45L422.614 607.749L421.285 618.388L418.627 626.367L413.311 638.336L407.996 644.985L404.009 650.305H401.351L402.68 642.325L405.338 631.686L406.667 625.037L407.996 614.398L409.325 610.409L417.298 602.429L418.627 597.11L425.272 583.811L427.93 581.152V577.162L430.588 571.842L437.233 562.533L438.562 557.214L441.22 553.224V549.235L439.891 547.905V545.245L443.878 543.915V539.926L442.549 538.596V535.936L446.536 533.276H447.865Z" fill="#DE8484"/>
<path d="M429.259 530.617L426.601 533.276V537.266L429.259 538.596H431.917V535.936V533.276L430.588 530.617H429.259Z" fill="#DE8484"/>
<path d="M349.521 614.398L345.534 623.707V633.016L352.179 644.985L361.481 652.964L372.113 655.624L377.429 656.954V666.263L380.087 671.582H389.39L397.364 668.923L398.693 663.603V656.954V650.304L394.706 644.985L392.048 635.676V619.718L404.009 597.11L405.338 589.131L407.996 581.151L411.982 578.492L417.298 562.533L415.969 557.214L411.982 553.224L401.351 551.894L397.364 550.564L386.732 551.894L382.745 555.884L380.087 562.533L378.758 570.512L376.1 578.492L372.113 579.822V585.141L374.771 587.801V593.12V602.429L373.442 606.419L365.468 611.738L362.81 614.398L357.494 615.728L353.508 614.398H349.521Z" fill="#DE8484"/>
<path d="M361.482 566.523L353.508 575.832L352.179 582.481L353.508 585.141L360.153 583.811L362.811 578.492L364.14 574.502V569.183L361.482 566.523Z" fill="#DE8484"/>
<path d="M310.98 500.03L325.599 502.689V509.339V517.318L321.612 550.565L317.625 557.214V562.533V570.513V577.162L316.296 585.141H320.283L336.231 571.843L357.495 566.523L364.139 562.533L368.126 559.874L369.455 551.895L377.429 545.245L384.074 538.596L389.39 537.266L390.719 533.276L388.061 531.947L389.39 529.287L392.048 526.627V510.669L389.39 511.999L385.403 515.988L382.745 517.318L377.429 514.658L372.113 511.999L369.455 509.339L365.468 511.999L360.153 513.328L354.837 514.658L348.192 506.679L345.534 502.689L334.902 500.03L326.928 496.04L320.283 492.051L317.625 490.721L313.638 492.051L310.98 500.03Z" fill="#DE8484"/>
<path d="M552.854 563.863L555.512 567.853L558.17 565.193H556.841L554.183 563.863H552.854Z" fill="#DE8484"/>
<path d="M469.128 505.349L470.457 510.669L478.431 517.318H485.076L482.418 509.339L479.76 505.349L471.786 504.02L469.128 505.349Z" fill="#DE8484"/>
<path d="M465.142 518.648L471.786 533.276L470.457 542.585V546.575L473.115 551.894L478.431 557.214L479.76 555.884L481.089 550.564L485.076 546.575L489.063 550.564L493.05 555.884L495.708 563.863V567.853V574.502L491.721 579.822V583.811L495.708 590.46V599.77V603.759L502.353 606.419L506.34 609.079L508.998 610.408L510.327 609.079V606.419L508.998 605.089L507.669 601.099V595.78V587.801L510.327 589.131L512.985 593.12L515.643 599.77V605.089L522.288 614.398L527.603 618.388V615.728L526.274 613.068L523.617 610.408L522.288 606.419L518.301 603.759L516.972 602.429V599.77V597.11L520.959 593.12H524.946V591.79L522.288 589.131L520.959 586.471L519.63 575.832L514.314 566.523L508.998 562.533L510.327 551.894L511.656 549.235L510.327 537.266V533.276L506.34 530.617V527.957L508.998 529.287L511.656 530.617H518.301L519.63 535.936L522.288 539.926L527.603 541.255H531.59H536.906H542.222L546.209 539.926L551.525 542.585L554.183 545.245L555.512 546.575L556.841 545.245L555.512 542.585L551.525 538.596L548.867 534.606L546.209 535.936L543.551 534.606V530.617L546.209 529.287L547.538 525.297L546.209 522.637L540.893 521.307L538.235 514.658V500.03L535.577 496.04V488.061L539.564 476.092H538.235V472.102H540.893L535.577 466.783L528.932 465.453L527.603 461.463L526.274 457.474V453.484L523.617 450.825L519.63 448.165L515.643 446.835L512.985 449.495L508.998 448.165L506.34 446.835L499.695 449.495L494.379 450.825H485.076H478.431L474.444 449.495H469.129H466.471H465.142L463.813 448.165L462.484 449.495L463.813 452.154L465.142 454.814L467.8 462.793L469.129 466.783L471.786 474.762L477.102 480.082L483.747 481.411L487.734 482.741L495.708 492.05L499.695 496.04L502.353 500.03H508.998V504.019L507.669 509.339L503.682 511.998L501.024 513.328L498.366 511.998L495.708 508.009L493.05 505.349V506.679L494.379 509.339L495.708 511.998L497.037 514.658L502.353 515.988L505.011 518.648L508.998 522.637L507.669 523.967H506.34H502.353L498.366 522.637L494.379 525.297L491.721 527.957L487.734 529.287H485.076L479.76 525.297V523.967L477.102 521.307L475.773 522.637L474.444 523.967L473.115 519.978L470.457 518.648L469.129 515.988L466.471 514.658L465.142 515.988V518.648Z" fill="#DE8484"/>
<path d="M188.183 237.155L190.044 236.716L194.031 234.056L195.36 235.386L198.018 236.716H202.004V238.046L204.662 243.365L208.649 248.685L212.636 247.355L215.294 243.365L219.281 239.376H223.268H228.584V235.386L229.913 232.727L232.571 236.716L235.229 235.386H240.545L244.532 236.716H247.19L248.519 231.397L251.177 230.067L249.848 216.768L248.519 214.108L241.874 211.449H237.887L229.913 210.119L225.926 207.459L223.268 198.15V191.501L225.926 186.181V184.851L231.242 178.202L232.571 171.553V166.233L240.545 163.573L241.874 158.254V151.605L247.19 147.615V146.285L243.203 147.615L239.216 146.285H236.558V143.625L233.9 139.636L231.242 138.306L228.584 134.316V131.657L229.913 127.667L228.584 126.337H223.268V123.678L225.926 114.368L231.242 105.059L235.229 102.4L237.887 98.41L241.874 97.0802L245.861 95.7503H251.177L252.505 89.101V85.1114L255.163 81.1218V79.7919L252.505 70.4829L253.834 61.1738L255.828 53.8595L256.001 53.4473" stroke="white" stroke-miterlimit="10"/>
<path d="M253.675 62.2776L258.486 59.1791L259.815 55.1895L262.473 56.5193V59.1791L267.789 61.8388L279.75 67.1583L285.066 71.1479L286.395 83.1166L285.066 89.766L282.408 91.0958L279.75 96.4153L277.092 105.724L281.079 107.054L285.066 112.374V115.033H289.052L291.71 119.023L298.355 125.672V129.662L295.697 130.992L291.71 141.631V145.62V148.28V149.61V152.27L293.039 158.919V164.238H290.381V168.228L287.724 169.558H283.737L278.421 173.548L277.092 177.537L274.434 178.867L271.776 181.527H266.46L251.841 185.516L249.183 192.166V197.485L246.525 202.805H243.867L241.209 206.794L241.409 211.449" stroke="white" stroke-miterlimit="10"/>
<path d="M249.183 216.103H261.144L266.46 218.763L267.789 222.753L269.118 228.072L271.776 237.381L274.434 238.711L281.078 233.391L291.71 224.082L306.329 210.784L319.619 196.155L323.606 189.506L337.294 189.28" stroke="white" stroke-miterlimit="10"/>
<path d="M283.471 274.232L281.078 278.607V283.927L278.421 286.586L277.092 294.566L275.763 298.555L271.776 301.215L265.131 302.545L263.802 303.875L259.815 305.205H257.157L255.828 306.534L253.834 309.314" stroke="white" stroke-miterlimit="10"/>
<path d="M253.077 324.673L255.828 329.142L257.157 333.131L259.815 331.801L262.473 323.822L263.802 314.513V311.853V307.864L264.214 303.462" stroke="white" stroke-miterlimit="10"/>
<path d="M339.567 347.095L339.554 350.42L340.883 351.75L343.541 350.42L346.198 347.76L348.856 346.43L354.172 347.76L360.817 350.42L366.133 353.08L368.791 354.409L367.462 355.739L363.475 357.069L358.159 358.399H355.501L354.837 360.394" stroke="white" stroke-miterlimit="10"/>
<path d="M358.159 650.118L360.817 644.32L370.12 635.011L372.778 628.362L376.765 621.712L386.068 607.084L391.384 597.775L394.042 593.785L390.055 589.795V587.136H399.357L405.218 589.835" stroke="white" stroke-miterlimit="10"/>
<path d="M416.647 700.188L416.634 704.164V718.793L417.963 734.751V738.741L419.292 740.071H423.279L424.608 742.73L423.279 746.72L422.349 750.577" stroke="white" stroke-miterlimit="10"/>
<path d="M433.698 758.476L435.24 757.359H440.556H444.542L445.871 754.699L447.2 752.039L445.871 749.379L447.2 748.05H452.516L453.845 745.39L452.516 742.73L455.174 740.07L460.49 738.741L463.148 734.751V728.102H465.806L469.793 730.761L476.438 733.421L480.425 738.741L481.754 745.39L488.399 756.029L492.386 760.018L495.044 766.668L497.702 771.987L495.044 774.647H497.702L499.031 777.307L503.017 778.637H508.333H510.991L513.649 775.977H518.965L520.294 769.327L524.281 766.668V764.008L529.597 765.338H533.584L534.913 762.678L536.242 756.029L534.913 752.039V746.72L532.255 744.06V742.73H538.9L565.479 741.4L570.795 742.73L574.782 745.39L578.769 742.73L585.414 741.4H593.388L594.385 748.382" stroke="white" stroke-miterlimit="10"/>
<path d="M521.331 672.912L522.952 677.567L521.623 682.886L524.281 684.216L521.623 690.865L522.952 698.845L524.281 714.803L525.61 718.793L528.268 721.452L530.926 725.442L532.255 737.411V742.73" stroke="white" stroke-miterlimit="10"/>
<path d="M523.391 767.266L525.61 771.987L522.952 781.296V790.605L524.281 797.255L525.61 798.584L526.939 801.244L528.268 803.904H525.61L521.623 810.553L517.636 814.543L516.307 817.203L514.978 818.532V821.192L517.636 822.522L516.307 826.512L517.636 829.171L520.294 831.831V835.821L518.965 838.48L521.623 839.81L525.61 841.14L526.939 839.81L528.268 837.151L529.597 834.491L532.255 835.821L534.913 839.81L536.242 842.47L534.913 847.79L537.571 851.779L538.9 853.109V859.758L541.558 863.748L540.229 869.067L538.9 877.047L537.571 882.366L534.913 887.685L529.677 893.258" stroke="white" stroke-miterlimit="10"/>
<path d="M447.865 821.711L452.517 821.192H460.49L463.148 822.522L469.793 823.852L479.096 822.522L481.754 818.533L480.425 814.543L483.083 813.213H488.399V815.873L487.07 818.533L488.399 821.192H492.386L493.715 825.182L497.702 827.842L503.018 826.512L507.005 823.852L505.676 821.192L503.018 819.863H496.373V813.213V806.564L493.715 803.904L496.373 799.915L495.044 797.255L489.728 791.935L487.07 795.925L491.057 797.255V798.585L489.728 799.915L487.07 802.574L489.728 803.904V807.894H485.741L484.412 806.564H481.754L480.425 803.904L479.096 802.574H476.438L472.451 799.915L477.767 790.605L472.451 789.276L468.464 794.595H465.806L471.122 786.616L476.438 777.307L473.78 773.317V770.657V766.668L475.109 762.678H480.425L484.412 766.668H487.07L489.728 765.338L494.725 765.87" stroke="white" stroke-miterlimit="10"/>
<circle cx="234" cy="297" r="5" fill="#8E0000" fill-opacity="0.6"/>
<circle cx="410" cy="746" r="5" fill="#8E0000" fill-opacity="0.6"/>
<circle cx="405" cy="751" r="5" fill="#8E0000" fill-opacity="0.6"/>
<circle cx="340" cy="506" r="5" fill="#8E0000" fill-opacity="0.6"/>
</svg>
